# xmcd CD database file
#
# Track frame offsets:
#	150
#	15665
#	31863
#	47258
#	57523
#	72588
#	88398
#	103323
#	118575
#	132753
#	148720
#	164315
#	177390
#	190240
#
# Disc length: 2732 seconds
#
# Revision: 0
# Processed by: cddbd v1.5.1PL2 Copyright (c) Steve Scherf et al.
# Submitted via: CDex 1.51
#
DISCID=c90aaa0e
DTITLE=Glenn Miller - BEST SELLERS Jazz
DYEAR=1997
DGENRE=Jazz
TTITLE0=ムーンライト・セレナーデ
TTITLE1=イン・ザ・ムード
TTITLE2=スターダスト
TTITLE3=ダニーボーイ
TTITLE4=パーフィディア
TTITLE5=チャタヌガ・チュー・チュー
TTITLE6=真珠の首飾り
TTITLE7=アメリカン・パトロール
TTITLE8=ジューク・ボックス・サタデイ・ナイト
TTITLE9=セントルイス・ブルース・マーチ
TTITLE10=サンライズ・セレナーデ
TTITLE11=茶色の小瓶
TTITLE12=ジョンソン・ラグ
TTITLE13=ペンシルヴァニア 6-5000
EXTD=
EXTT0=
EXTT1=
EXTT2=
EXTT3=
EXTT4=
EXTT5=
EXTT6=
EXTT7=
EXTT8=
EXTT9=
EXTT10=
EXTT11=
EXTT12=
EXTT13=
PLAYORDER=
